<?xml version="1.0" standalone="no"?>
<!DOCTYPE svg PUBLIC "-//W3C//DTD SVG 20010904//EN"
 "http://www.w3.org/TR/2001/REC-SVG-20010904/DTD/svg10.dtd">
<svg version="1.0" xmlns="http://www.w3.org/2000/svg"
 width="428.000000pt" height="353.000000pt" viewBox="0 0 428.000000 353.000000"
 preserveAspectRatio="xMidYMid meet">

<g transform="translate(0.000000,353.000000) scale(0.100000,-0.100000)"
fill="#1b82c4" stroke="none">
<path  d="M2285 2216 c0 -17 5 -26 16 -26 9 0 44 -14 78 -31 70 -35 111 -83
139 -161 13 -38 21 -48 39 -48 29 0 29 14 2 87 -36 94 -143 184 -241 199 -30
5 -33 4 -33 -20z"/>
<path  d="M2283 2131 c-1 -14 8 -23 34 -32 46 -15 109 -78 118 -118 5 -26 11
-31 35 -31 l29 0 -15 43 c-8 24 -28 60 -45 80 -53 65 -153 101 -156 58z"/>
<path d="M2284 2047 c4 -30 70 -97 96 -97 17 0 20 4 15 23 -10 31 -53 74 -86
86 -25 9 -27 7 -25 -12z"/>
<path  d="M2193 1980 c-64 -27 -68 -116 -7 -152 41 -24 43 -43 14 -127 -23 -64
-18 -92 19 -125 15 -14 21 -31 21 -65 1 -85 60 -173 145 -212 50 -23 167 -25
218 -4 86 36 157 136 157 222 0 31 6 48 25 67 27 28 34 82 14 115 -9 14 -9 26
0 51 14 43 -2 62 -18 21 -11 -26 -18 -30 -64 -33 -37 -3 -59 1 -77 13 -71 47
-194 51 -272 8 -31 -17 -55 -23 -85 -21 -42 3 -43 4 -43 37 0 28 6 37 29 49
52 27 64 102 22 140 -22 20 -70 28 -98 16z m92 -50 c0 -18 -6 -26 -22 -28 -18
-3 -23 1 -23 21 0 28 9 39 30 35 9 -2 15 -14 15 -28z m362 -244 c46 -22 53
-29 63 -67 17 -62 5 -124 -28 -148 -100 -71 -321 -62 -382 17 -23 29 -27 112
-7 152 13 27 71 59 127 71 59 13 170 1 227 -25z"/>
<path d="M2925 1910 c-35 -39 6 -99 59 -86 16 4 31 17 37 33 22 58 -54 100
-96 53z"/>
</g>
</svg>
